<?xml version="1.0" standalone="no"?>
<!DOCTYPE svg PUBLIC "-//W3C//DTD SVG 20010904//EN"
 "http://www.w3.org/TR/2001/REC-SVG-20010904/DTD/svg10.dtd">
<svg version="1.0" xmlns="http://www.w3.org/2000/svg"
 width="1000.000000pt" height="1000.000000pt" viewBox="0 0 1000.000000 1000.000000"
 preserveAspectRatio="xMidYMid meet">
<metadata>
Created by potrace 1.15, written by Peter Selinger 2001-2017
</metadata>
<g transform="translate(0.000000,1000.000000) scale(0.100000,-0.100000)"
fill="#000000" stroke="none">
<path d="M4578 8580 c-1026 -98 -1939 -601 -2537 -1396 -364 -486 -581 -1042
-641 -1643 -13 -133 -13 -479 0 -612 147 -1478 1274 -2679 2800 -2983 267 -53
351 -60 720 -60 369 0 453 7 720 60 1255 250 2262 1115 2650 2275 111 330 160
644 160 1014 0 220 -9 342 -41 535 -128 784 -570 1526 -1212 2035 -523 415
-1118 666 -1802 761 -137 19 -671 28 -817 14z m795 -224 c773 -111 1435 -435
1957 -956 516 -516 826 -1161 900 -1870 12 -122 12 -468 0 -590 -74 -709 -384
-1354 -900 -1870 -481 -480 -1118 -811 -1790 -928 -242 -43 -299 -47 -620 -47
-321 0 -378 4 -620 47 -672 117 -1309 448 -1790 928 -516 516 -826 1161 -900
1870 -12 122 -12 468 0 590 74 709 384 1354 900 1870 469 468 1065 785 1725
915 94 18 217 38 275 44 58 6 119 13 135 15 77 10 626 -3 728 -18z"/>
<path d="M7375 6951 c-86 -39 -135 -117 -135 -216 0 -69 22 -125 66 -169 44
-44 100 -66 169 -66 69 0 125 22 169 66 44 44 66 100 66 169 0 69 -22 125 -66
169 -44 44 -100 66 -169 66 -37 0 -75 -7 -100 -19z m207 -50 c62 -43 83 -85
83 -166 0 -59 -4 -78 -24 -107 -43 -62 -85 -83 -166 -83 -81 0 -123 21 -165
82 -28 41 -38 124 -21 175 14 41 64 95 106 115 47 21 145 12 187 -16z"/>
<path d="M7360 6730 l0 -130 35 0 35 0 0 50 c0 46 2 50 24 50 39 0 56 -10 56
-34 0 -50 11 -66 45 -66 33 0 33 0 28 43 -3 23 -10 50 -15 60 -6 12 -5 23 2
32 7 8 12 31 12 52 0 59 -26 73 -133 73 l-89 0 0 -130z"/>
<path d="M2970 6430 c-361 -31 -610 -175 -745 -431 -59 -112 -78 -202 -78
-359 1 -115 4 -148 26 -220 31 -104 64 -164 128 -235 126 -137 286 -201 794
-315 214 -49 361 -92 428 -127 150 -77 181 -266 66 -397 -76 -86 -184 -123
-384 -133 -327 -15 -503 75 -564 286 -11 36 -22 78 -25 94 l-6 27 -255 0 -255
0 0 -34 c0 -57 29 -201 54 -270 98 -271 353 -457 712 -521 129 -22 340 -30
467 -16 296 32 536 147 676 324 118 147 162 278 162 482 0 328 -161 536 -502
649 -41 14 -224 61 -405 105 -500 120 -559 146 -611 265 -16 36 -17 117 -1
168 16 54 85 128 150 161 109 55 286 72 435 41 192 -39 290 -127 331 -295 l18
-74 254 -3 253 -2 -6 73 c-12 159 -67 303 -162 425 -137 176 -402 305 -681
332 -109 10 -149 10 -274 0z"/>
<path d="M4340 6351 c0 -5 9 -37 19 -72 11 -35 69 -239 130 -454 60 -214 148
-525 195 -690 46 -165 141 -500 211 -745 69 -245 132 -469 141 -497 l15 -53
249 0 c138 0 250 2 250 4 0 1 22 111 50 242 221 1067 303 1478 325 1627 4 26
9 46 12 44 2 -3 22 -101 43 -218 36 -193 86 -439 284 -1399 l61 -295 258 -3
c141 -1 257 0 257 2 0 4 39 143 210 751 33 116 114 404 180 640 140 496 228
810 276 980 19 65 34 125 34 132 0 10 -56 13 -270 13 -148 0 -270 -3 -270 -6
0 -3 -77 -339 -171 -747 -94 -408 -185 -816 -203 -907 l-32 -164 -27 144 c-24
125 -124 614 -292 1425 -25 121 -48 228 -51 238 -5 16 -25 17 -286 15 l-281
-3 -48 -245 c-111 -564 -211 -1081 -256 -1317 l-48 -252 -36 197 c-19 108
-109 518 -200 909 l-164 713 -282 0 c-160 0 -283 -4 -283 -9z"/>
</g>
</svg>
